<svg fill="currentColor" xmlns="http://www.w3.org/2000/svg" viewBox="40 40 880 880">
  <path
    d="M480 40Q389 40 308.5 74.5Q228 109 168.5 168.5Q109 228 74.5 308.5Q40 389 40 480Q40 571 74.5 651Q109 731 168.5 791Q228 851 308.5 885.5Q389 920 480 920Q571 920 651 885.5Q731 851 791 791Q851 731 885.5 651Q920 571 920 480Q920 389 885.5 308.5Q851 228 791 168.5Q731 109 651 74.5Q571 40 480 40ZM200 254L200 706Q162 659 141 601.5Q120 544 120 480Q120 415 141 358Q162 301 200 254ZM480 120Q544 120 601 141Q658 162 705 199L254 200Q301 162 358 141Q415 120 480 120ZM253 759L707 759Q660 797 602.5 818.5Q545 840 480 840Q415 840 357.5 818.5Q300 797 253 759ZM280 280L440 280L280 599ZM481 379L631 680L330 680ZM519 280L680 280L680 601ZM759 253Q797 300 818.5 357.5Q840 415 840 480Q840 544 819 601.5Q798 659 760 706Z" />
</svg>
