<svg width="24" height="24" viewBox="0 0 24 24" fill="none" xmlns="http://www.w3.org/2000/svg">
  <defs>
    <linearGradient id="paint0_linear_311_31251" x1="0" y1="0" x2="24" y2="20" gradientUnits="userSpaceOnUse">
      <stop stop-color="#FFA8FF" />
      <stop offset="1" stop-color="#FF8B5E" />
    </linearGradient>
    <linearGradient id="paint1_linear_311_31251" x1="23.9004" y1="-4.53119e-07" x2="9.22123" y2="28.7141"
      gradientUnits="userSpaceOnUse">
      <stop stop-color="white" />
      <stop offset="1" stop-color="white" stop-opacity="0" />
    </linearGradient>
    <clipPath id="clip0_311_31251">
      <rect width="24" height="24" fill="white" />
    </clipPath>
  </defs>
  <mask id="mask0_311_31251" style="mask-type:alpha" maskUnits="userSpaceOnUse" x="0" y="0" width="24" height="24">
    <path
      d="M12 12C15.315 12 18 9.315 18 6C18 2.685 15.315 0 12 0C8.685 0 6 2.685 6 6C6 9.315 8.685 12 12 12ZM12 15C7.995 15 0 17.01 0 21V22.5C0 23.325 0.675 24 1.5 24H22.5C23.325 24 24 23.325 24 22.5V21C24 17.01 16.005 15 12 15Z"
      fill="url(#paint0_linear_311_31251)" />
  </mask>
  <g mask="url(#mask0_311_31251)">
    <g clip-path="url(#clip0_311_31251)">
      <rect width="24" height="24" fill="#FFA9FE" />
      <mask id="mask1_311_31251" style="mask-type:alpha" maskUnits="userSpaceOnUse" x="0" y="0" width="24" height="24">
        <rect width="24" height="24" fill="url(#paint1_linear_311_31251)" />
      </mask>
      <g mask="url(#mask1_311_31251)">
        <rect width="24" height="24" fill="#FFB59B" />
      </g>
    </g>
  </g>
</svg>
